<?xml version="1.0" encoding="utf-8"?>
<!-- Generator: Adobe Illustrator 23.0.1, SVG Export Plug-In . SVG Version: 6.00 Build 0)  -->
<svg version="1.1" id="图层_1" xmlns="http://www.w3.org/2000/svg" xmlns:xlink="http://www.w3.org/1999/xlink" x="0px" y="0px"
	 viewBox="0 0 256 256" style="enable-background:new 0 0 256 256;" xml:space="preserve">
<g>
	<g>
		<path d="M128.82,256C59.38,256.22,2.21,199.23,2,129.57C1.79,59.29,58.56,2.12,128.68,2c70.05-0.12,127.03,56.47,127.31,126.43
			C256.28,198.89,199.56,255.77,128.82,256z M131.3,251.4c-9.48-40.29,11.28-102.42,74.11-122.06c-0.7-0.42-1.21-0.87-1.8-1.07
			c-19.61-6.9-39.25-13.73-58.83-20.73c-2.74-0.98-4.44-0.64-6.46,1.53c-28.47,30.76-37.32,66.23-25.78,106.64
			c2.5,8.75,6.67,16.79,11.73,25.21c-2.44-1.16-3.08-2.76-3.94-4.08C99.61,204.81,95.85,171,110.15,135.5
			c1.45-3.6,0.88-4.63-2.65-5.82c-12.93-4.34-25.79-8.91-38.57-13.67c-3.95-1.47-5.63-1.16-5.73,3.52
			c-0.21,9.33-0.47,18.64,0.8,27.92C70.17,192.26,92.85,226.39,131.3,251.4z M157.39,10.76c-0.97,19.78-11.61,32.46-28.5,40.98
			c-9.06,4.57-18.01,9.41-26.67,14.68c-9.35,5.7-17.5,12.85-21.72,23.38c-5.13,12.78,0.34,23.85,13.62,27.6
			c2.85,0.81,5.88,1.29,8.84,1.38c20.26,0.65,38.78-16.02,42.43-38.31c-1.39,1.28-2.58,2.43-3.83,3.51
			c-6.75,5.8-13.93,10.96-22.86,12.71c-3.72,0.73-8.22,1.46-10.28-2.77c-1.9-3.89,1.13-6.93,3.7-9.56
			c3.77-3.87,8.46-6.43,13.23-8.84C149.91,63.08,160.47,39.04,157.39,10.76z" fill="#2196F3"/>
	</g>
</g>
</svg>
