<?xml version="1.0" encoding="utf-8"?>
<!-- Generator: Adobe Illustrator 23.0.1, SVG Export Plug-In . SVG Version: 6.00 Build 0)  -->
<svg version="1.1" id="图层_1" xmlns="http://www.w3.org/2000/svg" xmlns:xlink="http://www.w3.org/1999/xlink" x="0px" y="0px"
	 viewBox="0 0 256 256" style="enable-background:new 0 0 256 256;" xml:space="preserve">
<g>
	<g>
		<path d="M1,247C1,168.33,1,89.67,1,11C2.85,6.18,6.22,2.89,11,1c78.67,0,157.33,0,236,0c4.79,1.87,8.15,5.18,10,10
			c0,78.67,0,157.33,0,236c-1.85,4.82-5.2,8.13-10,10c-78.67,0-157.33,0-236,0C6.22,255.11,2.85,251.82,1,247z M126.23,234.84
			c-4.97-6.48-8.39-13.75-11.12-21.35c-9.59-26.69-8.89-53.15,1.88-79.38c0.85-2.06,2.95-4.39-1.23-5.82
			c-14.47-4.97-28.87-10.14-43.27-15.3c-3-1.07-3.6,0.14-3.9,2.93c-0.9,8.49-0.8,16.93,0.04,25.42
			c4.03,40.82,22.06,74.15,53.57,100.22c5.23,4.33,10.71,8.47,16.59,11.47c-5.6-27.95-0.57-53.53,13.87-77.29
			c14.48-23.83,35.63-39.39,62.57-47.63c-0.87-0.77-1.07-1.09-1.36-1.19c-21-7.45-42.02-14.85-63-22.37
			c-1.94-0.7-3.04-0.2-4.34,1.13c-24.31,24.73-35.2,54.36-32.2,88.93C115.55,208.77,119.91,222.1,126.23,234.84z M153.41,77.11
			c-3.91,3.15-7.34,6.19-11.05,8.85c-6.27,4.5-12.91,8.3-21.01,8.14c-2.35-0.04-4.84-0.15-5.98-2.7c-1.06-2.36-0.19-4.56,1.16-6.57
			c2.88-4.27,7.06-7.02,11.44-9.46c5.08-2.83,10.2-5.54,14.91-9.03c19.02-14.12,26.12-39.91,22.66-61.79
			c-0.15,0.07-0.42,0.11-0.44,0.21c-0.22,0.97-0.49,1.94-0.58,2.93C162.97,26.53,153,39.3,136.34,47.6
			c-9.51,4.74-18.88,9.85-27.94,15.41c-10.21,6.26-19,14.14-23.01,26c-3.84,11.35,0.85,21.49,12,25.92
			c6.32,2.51,12.96,3.08,19.62,1.8C134.85,113.3,149.81,97.14,153.41,77.11z" fill="#2196F3"/>
	</g>
</g>
</svg>
